<?xml version="1.0" encoding="utf-8"?>
<svg xmlns="http://www.w3.org/2000/svg" viewBox="0 0 500 500" xmlns:bx="https://boxy-svg.com" width="500px" height="500px"><defs><bx:export><bx:file format="svg"/></bx:export></defs><rect x="55" y="55" width="130" height="130" style="stroke: rgb(0, 0, 0); stroke-width: 5px; fill: rgb(254, 254, 8);"/><rect x="55" y="185" width="130" height="130" style="stroke: rgb(0, 0, 0); stroke-width: 5px; fill: rgb(254, 254, 8);"/><rect x="55" y="315" width="130" height="130" style="stroke: rgb(0, 0, 0); stroke-width: 5px; fill: rgb(254, 254, 8);"/><rect x="185" y="55" width="130" height="130" style="stroke: rgb(0, 0, 0); stroke-width: 5px; fill: rgb(254, 254, 8);"/><rect x="185" y="185" width="130" height="130" style="stroke: rgb(0, 0, 0); stroke-width: 5px; fill: rgb(254, 254, 8);"/><rect x="315" y="185" width="130" height="130" style="stroke: rgb(0, 0, 0); stroke-width: 5px; fill: rgb(254, 254, 8);"/><rect x="183.903" y="315" width="130" height="130" style="stroke: rgb(0, 0, 0); stroke-width: 5px; fill: rgb(254, 254, 8);"/><rect x="315" y="315" width="130" height="130" style="stroke: rgb(0, 0, 0); stroke-width: 5px; fill: rgb(254, 254, 8);"/><rect x="315" y="55" width="130" height="130" style="stroke: rgb(0, 0, 0); stroke-width: 5px; fill: rgb(254, 254, 8);"/><rect x="55" y="5" width="130" height="50" style="stroke: rgb(0, 0, 0); stroke-width: 5px; fill: rgb(32, 64, 208);"/><rect x="185" y="5" width="130" height="50" style="stroke: rgb(0, 0, 0); stroke-width: 5px; fill: rgb(32, 64, 208);"/><rect x="315" y="5" width="130" height="50" style="stroke: rgb(0, 0, 0); stroke-width: 5px; fill: rgb(255, 96, 32);"/><rect x="55" y="445" width="130" height="50" style="stroke: rgb(0, 0, 0); stroke-width: 5px; fill: rgb(0, 144, 0);"/><rect x="185" y="445" width="130" height="50" style="stroke: rgb(0, 0, 0); stroke-width: 5px; fill: rgb(0, 144, 0);"/><rect x="315" y="445" width="130" height="50" style="stroke: rgb(0, 0, 0); stroke-width: 5px; fill: rgb(255, 96, 32);"/><rect x="5" y="55" width="50" height="130" style="stroke: rgb(0, 0, 0); stroke-width: 5px; fill: rgb(208, 0, 0);"/><rect x="5" y="185" width="50" height="130" style="stroke: rgb(0, 0, 0); stroke-width: 5px; fill: rgb(255, 96, 32);"/><rect x="5" y="315" width="50" height="130" style="stroke: rgb(0, 0, 0); stroke-width: 5px; fill: rgb(208, 0, 0);"/><rect x="445" y="55" width="50" height="130" style="stroke: rgb(0, 0, 0); stroke-width: 5px; fill: rgb(0, 144, 0);"/><rect x="445" y="185" width="50" height="130" style="stroke: rgb(0, 0, 0); stroke-width: 5px; fill: rgb(208, 0, 0);"/><rect x="445" y="315" width="50" height="130" style="stroke: rgb(0, 0, 0); stroke-width: 5px; fill: rgb(32, 64, 208);"/><rect x="-445.324" y="126.209" width="12.065" height="269.815" style="stroke: rgb(0, 0, 0);"/><path d="M -439.307 88.235 L -417.312 132.226 L -461.303 132.226 L -439.307 88.235 Z" bx:shape="triangle -461.303 88.235 43.991 43.991 0.5 0 1@8c9da106" style="stroke: rgb(0, 0, 0);"/><path d="M 438.46 -417.677 L 460.455 -373.686 L 416.464 -373.686 L 438.46 -417.677 Z" bx:shape="triangle 416.464 -417.677 43.991 43.991 0.5 0 1@5229c86c" style="stroke: rgb(0, 0, 0);" transform="matrix(-1, 0, 0, -1, 0, 0)"/><rect x="369.081" y="127.483" width="12.065" height="269.815" style="stroke: rgb(0, 0, 0);"/><path d="M 375.097 89.509 L 397.093 133.5 L 353.102 133.5 L 375.097 89.509 Z" bx:shape="triangle 353.102 89.509 43.991 43.991 0.5 0 1@19f39879" style="stroke: rgb(0, 0, 0);"/><path d="M -375.945 -418.951 L -353.95 -374.96 L -397.941 -374.96 L -375.945 -418.951 Z" bx:shape="triangle -397.941 -418.951 43.991 43.991 0.5 0 1@1bfe8c8a" style="stroke: rgb(0, 0, 0);" transform="matrix(-1, 0, 0, -1, 0, 0)"/></svg>