<?xml version="1.0" encoding="utf-8"?>
<svg xmlns="http://www.w3.org/2000/svg" viewBox="0 0 500 500" xmlns:bx="https://boxy-svg.com" width="500px" height="500px"><defs><bx:export><bx:file format="svg"/></bx:export></defs><rect x="55" y="55" width="130" height="130" style="stroke: rgb(0, 0, 0); stroke-width: 5px; fill: rgb(254, 254, 8);"/><rect x="55" y="185" width="130" height="130" style="stroke: rgb(0, 0, 0); stroke-width: 5px; fill: rgb(254, 254, 8);"/><rect x="55" y="315" width="130" height="130" style="stroke: rgb(0, 0, 0); stroke-width: 5px; fill: rgb(254, 254, 8);"/><rect x="185" y="55" width="130" height="130" style="stroke: rgb(0, 0, 0); stroke-width: 5px; fill: rgb(254, 254, 8);"/><rect x="185" y="185" width="130" height="130" style="stroke: rgb(0, 0, 0); stroke-width: 5px; fill: rgb(254, 254, 8);"/><rect x="315" y="185" width="130" height="130" style="stroke: rgb(0, 0, 0); stroke-width: 5px; fill: rgb(254, 254, 8);"/><rect x="183.903" y="315" width="130" height="130" style="stroke: rgb(0, 0, 0); stroke-width: 5px; fill: rgb(254, 254, 8);"/><rect x="315" y="315" width="130" height="130" style="stroke: rgb(0, 0, 0); stroke-width: 5px; fill: rgb(254, 254, 8);"/><rect x="315" y="55" width="130" height="130" style="stroke: rgb(0, 0, 0); stroke-width: 5px; fill: rgb(254, 254, 8);"/><rect x="55" y="5" width="130" height="50" style="stroke: rgb(0, 0, 0); stroke-width: 5px; fill: rgb(0, 144, 0);"/><rect x="185" y="5" width="130" height="50" style="stroke: rgb(0, 0, 0); stroke-width: 5px; fill: rgb(208, 0, 0);"/><rect x="315" y="5" width="130" height="50" style="stroke: rgb(0, 0, 0); stroke-width: 5px; fill: rgb(32, 64, 208);"/><rect x="55" y="445" width="130" height="50" style="stroke: rgb(0, 0, 0); stroke-width: 5px; fill: rgb(0, 144, 0);"/><rect x="185" y="445" width="130" height="50" style="stroke: rgb(0, 0, 0); stroke-width: 5px; fill: rgb(0, 144, 0);"/><rect x="315" y="445" width="130" height="50" style="stroke: rgb(0, 0, 0); stroke-width: 5px; fill: rgb(32, 64, 208);"/><rect x="5" y="55" width="50" height="130" style="stroke: rgb(0, 0, 0); stroke-width: 5px; fill: rgb(255, 96, 32);"/><rect x="5" y="185" width="50" height="130" style="stroke: rgb(0, 0, 0); stroke-width: 5px; fill: rgb(32, 64, 208);"/><rect x="5" y="315" width="50" height="130" style="stroke: rgb(0, 0, 0); stroke-width: 5px; fill: rgb(208, 0, 0);"/><rect x="445" y="55" width="50" height="130" style="stroke: rgb(0, 0, 0); stroke-width: 5px; fill: rgb(255, 96, 32);"/><rect x="445" y="185" width="50" height="130" style="stroke: rgb(0, 0, 0); stroke-width: 5px; fill: rgb(255, 96, 32);"/><rect x="445" y="315" width="50" height="130" style="stroke: rgb(0, 0, 0); stroke-width: 5px; fill: rgb(208, 0, 0);"/><rect x="-705.661" y="113.785" width="13.301" height="297.444" style="stroke: rgb(0, 0, 0); transform-box: fill-box; transform-origin: 50% 50%;" transform="matrix(0.710236, -0.703964, 0.710264, 0.703991, 944.494499, -10.34024)"/><path d="M -699.028 71.923 L -674.779 120.419 L -723.277 120.419 L -699.028 71.923 Z" bx:shape="triangle -723.277 71.923 48.498 48.496 0.5 0 1@914b4cbc" style="stroke: rgb(0, 0, 0); transform-box: fill-box; transform-origin: 50% 50%;" transform="matrix(0.710236, -0.703964, 0.710264, 0.703991, 826.357611, 38.908447)"/><path d="M 698.094 -435.099 L 722.343 -386.603 L 673.845 -386.603 L 698.094 -435.099 Z" bx:shape="triangle 673.845 -435.099 48.498 48.496 0.5 0 1@4444ce2f" style="stroke: rgb(0, 0, 0); transform-box: fill-box; transform-origin: 50% 50%;" transform="matrix(-0.710236, 0.703964, -0.710264, -0.703991, -346.595221, 766.804844)"/><rect x="-349.117" y="1.697" width="12.065" height="269.815" style="stroke: rgb(0, 0, 0);"/><path d="M -343.1 -36.277 L -321.105 7.714 L -365.096 7.714 L -343.1 -36.277 Z" bx:shape="triangle -365.096 -36.277 43.991 43.991 0.5 0 1@99bf1f58" style="stroke: rgb(0, 0, 0);"/><path d="M 342.253 -293.165 L 364.248 -249.174 L 320.257 -249.174 L 342.253 -293.165 Z" bx:shape="triangle 320.257 -293.165 43.991 43.991 0.5 0 1@eb595075" style="stroke: rgb(0, 0, 0);" transform="matrix(-1, 0, 0, -1, 0, 0)"/></svg>