<?xml version="1.0" encoding="utf-8"?>
<svg xmlns="http://www.w3.org/2000/svg" viewBox="0 0 500 500" xmlns:bx="https://boxy-svg.com" width="500px" height="500px"><defs><bx:export><bx:file format="svg"/></bx:export></defs><rect x="55" y="55" width="130" height="130" style="stroke: rgb(0, 0, 0); stroke-width: 5px; fill: rgb(254, 254, 8);"/><rect x="55" y="185" width="130" height="130" style="stroke: rgb(0, 0, 0); stroke-width: 5px; fill: rgb(254, 254, 8);"/><rect x="55" y="315" width="130" height="130" style="stroke: rgb(0, 0, 0); stroke-width: 5px; fill: rgb(254, 254, 8);"/><rect x="185" y="55" width="130" height="130" style="stroke: rgb(0, 0, 0); stroke-width: 5px; fill: rgb(254, 254, 8);"/><rect x="185" y="185" width="130" height="130" style="stroke: rgb(0, 0, 0); stroke-width: 5px; fill: rgb(254, 254, 8);"/><rect x="315" y="185" width="130" height="130" style="stroke: rgb(0, 0, 0); stroke-width: 5px; fill: rgb(254, 254, 8);"/><rect x="183.903" y="315" width="130" height="130" style="stroke: rgb(0, 0, 0); stroke-width: 5px; fill: rgb(254, 254, 8);"/><rect x="315" y="315" width="130" height="130" style="stroke: rgb(0, 0, 0); stroke-width: 5px; fill: rgb(254, 254, 8);"/><rect x="315" y="55" width="130" height="130" style="stroke: rgb(0, 0, 0); stroke-width: 5px; fill: rgb(254, 254, 8);"/><rect x="55" y="5" width="130" height="50" style="stroke: rgb(0, 0, 0); stroke-width: 5px; fill: rgb(32, 64, 208);"/><rect x="185" y="5" width="130" height="50" style="stroke: rgb(0, 0, 0); stroke-width: 5px; fill: rgb(32, 64, 208);"/><rect x="315" y="5" width="130" height="50" style="stroke: rgb(0, 0, 0); stroke-width: 5px; fill: rgb(32, 64, 208);"/><rect x="55" y="445" width="130" height="50" style="stroke: rgb(0, 0, 0); stroke-width: 5px; fill: rgb(0, 144, 0);"/><rect x="185" y="445" width="130" height="50" style="stroke: rgb(0, 0, 0); stroke-width: 5px; fill: rgb(255, 96, 32);"/><rect x="315" y="445" width="130" height="50" style="stroke: rgb(0, 0, 0); stroke-width: 5px; fill: rgb(0, 144, 0);"/><rect x="5" y="55" width="50" height="130" style="stroke: rgb(0, 0, 0); stroke-width: 5px; fill: rgb(208, 0, 0);"/><rect x="5" y="185" width="50" height="130" style="stroke: rgb(0, 0, 0); stroke-width: 5px; fill: rgb(0, 144, 0);"/><rect x="5" y="315" width="50" height="130" style="stroke: rgb(0, 0, 0); stroke-width: 5px; fill: rgb(208, 0, 0);"/><rect x="445" y="55" width="50" height="130" style="stroke: rgb(0, 0, 0); stroke-width: 5px; fill: rgb(255, 96, 32);"/><rect x="445" y="185" width="50" height="130" style="stroke: rgb(0, 0, 0); stroke-width: 5px; fill: rgb(208, 0, 0);"/><rect x="445" y="315" width="50" height="130" style="stroke: rgb(0, 0, 0); stroke-width: 5px; fill: rgb(255, 96, 32);"/><rect x="-349.117" y="1.697" width="12.065" height="269.815" style="stroke: rgb(0, 0, 0);"/><path d="M -651.478 8.357 L -629.483 52.348 L -673.474 52.348 L -651.478 8.357 Z" bx:shape="triangle -673.474 8.357 43.991 43.991 0.5 0 1@29c6e205" style="stroke: rgb(0, 0, 0);"/><path d="M 342.253 -293.165 L 364.248 -249.174 L 320.257 -249.174 L 342.253 -293.165 Z" bx:shape="triangle 320.257 -293.165 43.991 43.991 0.5 0 1@eb595075" style="stroke: rgb(0, 0, 0);" transform="matrix(-1, 0, 0, -1, 0, 0)"/><rect x="-592.997" y="146.217" width="12.065" height="269.815" style="stroke: rgb(0, 0, 0); transform-box: fill-box; transform-origin: 50% 50%;" transform="matrix(0, 1, -1, 0, 838.200211, -50.870515)"/><path d="M 586.132 -437.685 L 608.127 -393.694 L 564.136 -393.694 L 586.132 -437.685 Z" bx:shape="triangle 564.136 -437.685 43.991 43.991 0.5 0 1@3c8d035f" style="stroke: rgb(0, 0, 0); transform-box: fill-box; transform-origin: 50% 50%;" transform="matrix(0, -1, 1, 0, -475.772751, 648.043427)"/><rect x="-638.983" y="305.816" width="12.065" height="164.642" style="stroke: rgb(0, 0, 0); transform-box: fill-box; transform-origin: 50% 50%;" transform="matrix(-0.707107, -0.707107, 0.707107, -0.707107, 939.763382, -57.23416)"/><path d="M 632.119 -483.671 L 654.114 -456.828 L 610.123 -456.828 L 632.119 -483.671 Z" bx:shape="triangle 610.123 -483.671 43.991 26.843 0.5 0 1@ce005997" style="stroke: rgb(0, 0, 0); transform-box: fill-box; transform-origin: 50% 50%;" transform="matrix(0.707107, 0.707107, -0.707107, 0.707107, -267.831884, 742.501799)"/><rect x="-457.744" y="338.277" width="12.065" height="164.642" style="stroke: rgb(0, 0, 0); transform-box: fill-box; transform-origin: 50% 50%;" transform="matrix(0.707107, -0.707107, 0.707107, 0.707107, 625.330311, -103.224096)"/><path d="M 450.88 -516.132 L 472.875 -489.289 L 428.884 -489.289 L 450.88 -516.132 Z" bx:shape="triangle 428.884 -516.132 43.991 26.843 0.5 0 1@64b678a4" style="stroke: rgb(0, 0, 0); transform-box: fill-box; transform-origin: 50% 50%;" transform="matrix(-0.707107, 0.707107, -0.707107, -0.707107, -219.772578, 874.332825)"/></svg>