<?xml version="1.0" encoding="utf-8"?>
<svg xmlns="http://www.w3.org/2000/svg" viewBox="0 0 500 500" xmlns:bx="https://boxy-svg.com" width="500px" height="500px"><defs><bx:export><bx:file format="svg"/></bx:export></defs><rect x="55" y="55" width="130" height="130" style="stroke: rgb(0, 0, 0); stroke-width: 5px; fill: rgb(254, 254, 8);"/><rect x="55" y="185" width="130" height="130" style="stroke: rgb(0, 0, 0); stroke-width: 5px; fill: rgb(254, 254, 8);"/><rect x="55" y="315" width="130" height="130" style="stroke: rgb(0, 0, 0); stroke-width: 5px; fill: rgb(254, 254, 8);"/><rect x="185" y="55" width="130" height="130" style="stroke: rgb(0, 0, 0); stroke-width: 5px; fill: rgb(254, 254, 8);"/><rect x="185" y="185" width="130" height="130" style="stroke: rgb(0, 0, 0); stroke-width: 5px; fill: rgb(254, 254, 8);"/><rect x="315" y="185" width="130" height="130" style="stroke: rgb(0, 0, 0); stroke-width: 5px; fill: rgb(254, 254, 8);"/><rect x="183.903" y="315" width="130" height="130" style="stroke: rgb(0, 0, 0); stroke-width: 5px; fill: rgb(254, 254, 8);"/><rect x="315" y="315" width="130" height="130" style="stroke: rgb(0, 0, 0); stroke-width: 5px; fill: rgb(254, 254, 8);"/><rect x="315" y="55" width="130" height="130" style="stroke: rgb(0, 0, 0); stroke-width: 5px; fill: rgb(254, 254, 8);"/><rect x="55" y="5" width="130" height="50" style="stroke: rgb(0, 0, 0); stroke-width: 5px; fill: rgb(32, 64, 208);"/><rect x="185" y="5" width="130" height="50" style="stroke: rgb(0, 0, 0); stroke-width: 5px; fill: rgb(0, 144, 0);"/><rect x="315" y="5" width="130" height="50" style="stroke: rgb(0, 0, 0); stroke-width: 5px; fill: rgb(32, 64, 208);"/><rect x="55" y="445" width="130" height="50" style="stroke: rgb(0, 0, 0); stroke-width: 5px; fill: rgb(0, 144, 0);"/><rect x="185" y="445" width="130" height="50" style="stroke: rgb(0, 0, 0); stroke-width: 5px; fill: rgb(32, 64, 208);"/><rect x="315" y="445" width="130" height="50" style="stroke: rgb(0, 0, 0); stroke-width: 5px; fill: rgb(0, 144, 0);"/><rect x="5" y="55" width="50" height="130" style="stroke: rgb(0, 0, 0); stroke-width: 5px; fill: rgb(208, 0, 0);"/><rect x="5" y="185" width="50" height="130" style="stroke: rgb(0, 0, 0); stroke-width: 5px; fill: rgb(255, 96, 32);"/><rect x="5" y="315" width="50" height="130" style="stroke: rgb(0, 0, 0); stroke-width: 5px; fill: rgb(208, 0, 0);"/><rect x="445" y="55" width="50" height="130" style="stroke: rgb(0, 0, 0); stroke-width: 5px; fill: rgb(255, 96, 32);"/><rect x="445" y="185" width="50" height="130" style="stroke: rgb(0, 0, 0); stroke-width: 5px; fill: rgb(208, 0, 0);"/><rect x="445" y="315" width="50" height="130" style="stroke: rgb(0, 0, 0); stroke-width: 5px; fill: rgb(255, 96, 32);"/><rect x="-296.637" y="101.775" width="12.065" height="269.815" style="stroke: rgb(0, 0, 0); transform-box: fill-box; transform-origin: 50% 50%;" transform="matrix(0, 1, -1, 0, 541.309868, 10.720213)"/><path d="M -651.478 8.357 L -629.483 52.348 L -673.474 52.348 L -651.478 8.357 Z" bx:shape="triangle -673.474 8.357 43.991 43.991 0.5 0 1@29c6e205" style="stroke: rgb(0, 0, 0);"/><path d="M 289.773 -393.243 L 311.768 -349.252 L 267.777 -349.252 L 289.773 -393.243 Z" bx:shape="triangle 267.777 -393.243 43.991 43.991 0.5 0 1@52ae34c0" style="stroke: rgb(0, 0, 0); transform-box: fill-box; transform-origin: 50% 50%;" transform="matrix(0, -1, 1, 0, -173.632156, 619.482193)"/><rect x="-638.983" y="305.816" width="12.065" height="164.642" style="stroke: rgb(0, 0, 0); transform-box: fill-box; transform-origin: 50% 50%;" transform="matrix(-0.707107, -0.707107, 0.707107, -0.707107, 1685.470169, -131.682837)"/><path d="M -588.127 483.671 L -566.132 510.514 L -610.123 510.514 L -588.127 483.671 Z" bx:shape="triangle -610.123 483.671 43.991 26.843 0.5 0 1@9f15bdcd" style="stroke: rgb(0, 0, 0); transform-origin: -588.126px 497.092px;" transform="matrix(-0.707107, -0.707107, 0.707107, -0.707107, 1582.356156, -183.010276)"/><rect x="-457.744" y="338.277" width="12.065" height="164.642" style="stroke: rgb(0, 0, 0); transform-box: fill-box; transform-origin: 50% 50%;" transform="matrix(0.707107, -0.707107, 0.707107, 0.707107, 1618.792469, -281.412633)"/><path d="M -406.888 516.132 L -384.893 542.975 L -428.884 542.975 L -406.888 516.132 Z" bx:shape="triangle -428.884 516.132 43.991 26.843 0.5 0 1@e336d01a" style="stroke: rgb(0, 0, 0); transform-origin: -406.888px 529.552px;" transform="matrix(0.707107, -0.707107, 0.707107, 0.707107, 1516.722262, -448.28021)"/><path d="M 291.197 70.045 L 313.192 114.036 L 269.201 114.036 L 291.197 70.045 Z" bx:shape="triangle 269.201 70.045 43.991 43.991 0.5 0 1@d050f3ec" style="stroke: rgb(0, 0, 0); transform-box: fill-box; transform-origin: 50% 50%;" transform="matrix(0, -1, -1, 0, 104.150936, 154.770218)"/><rect x="240.339" y="117.353" width="12.065" height="269.815" style="stroke: rgb(0, 0, 0);"/><path d="M -247.204 -408.821 L -225.208 -364.83 L -269.199 -364.83 L -247.204 -408.821 Z" bx:shape="triangle -269.199 -408.821 43.991 43.991 0.5 0 1@cbeb5875" style="stroke: rgb(0, 0, 0);" transform="matrix(-1, 0, 0, -1, 0, 0)"/><path d="M -245.779 85.623 L -223.784 129.614 L -267.775 129.614 L -245.779 85.623 Z" bx:shape="triangle -267.775 85.623 43.991 43.991 0.5 0 1@f298c012" style="stroke: rgb(0, 0, 0);" transform="matrix(-1, 0, 0, 1, 0, 0)"/></svg>