<?xml version="1.0" encoding="utf-8"?>
<svg xmlns="http://www.w3.org/2000/svg" viewBox="0 0 500 500" xmlns:bx="https://boxy-svg.com" width="500px" height="500px"><defs><bx:export><bx:file format="svg"/></bx:export></defs><rect x="55" y="55" width="130" height="130" style="stroke: rgb(0, 0, 0); stroke-width: 5px; fill: rgb(254, 254, 8);"/><rect x="55" y="185" width="130" height="130" style="stroke: rgb(0, 0, 0); stroke-width: 5px; fill: rgb(254, 254, 8);"/><rect x="55" y="315" width="130" height="130" style="stroke: rgb(0, 0, 0); stroke-width: 5px; fill: rgb(254, 254, 8);"/><rect x="185" y="55" width="130" height="130" style="stroke: rgb(0, 0, 0); stroke-width: 5px; fill: rgb(254, 254, 8);"/><rect x="185" y="185" width="130" height="130" style="stroke: rgb(0, 0, 0); stroke-width: 5px; fill: rgb(254, 254, 8);"/><rect x="315" y="185" width="130" height="130" style="stroke: rgb(0, 0, 0); stroke-width: 5px; fill: rgb(254, 254, 8);"/><rect x="183.903" y="315" width="130" height="130" style="stroke: rgb(0, 0, 0); stroke-width: 5px; fill: rgb(254, 254, 8);"/><rect x="315" y="315" width="130" height="130" style="stroke: rgb(0, 0, 0); stroke-width: 5px; fill: rgb(254, 254, 8);"/><rect x="315" y="55" width="130" height="130" style="stroke: rgb(0, 0, 0); stroke-width: 5px; fill: rgb(254, 254, 8);"/><rect x="55" y="5" width="130" height="50" style="stroke: rgb(0, 0, 0); stroke-width: 5px; fill: rgb(32, 64, 208);"/><rect x="185" y="5" width="130" height="50" style="stroke: rgb(0, 0, 0); stroke-width: 5px; fill: rgb(208, 0, 0);"/><rect x="315" y="5" width="130" height="50" style="stroke: rgb(0, 0, 0); stroke-width: 5px; fill: rgb(32, 64, 208);"/><rect x="55" y="445" width="130" height="50" style="stroke: rgb(0, 0, 0); stroke-width: 5px; fill: rgb(0, 144, 0);"/><rect x="185" y="445" width="130" height="50" style="stroke: rgb(0, 0, 0); stroke-width: 5px; fill: rgb(255, 96, 32);"/><rect x="315" y="445" width="130" height="50" style="stroke: rgb(0, 0, 0); stroke-width: 5px; fill: rgb(0, 144, 0);"/><rect x="5" y="55" width="50" height="130" style="stroke: rgb(0, 0, 0); stroke-width: 5px; fill: rgb(208, 0, 0);"/><rect x="5" y="185" width="50" height="130" style="stroke: rgb(0, 0, 0); stroke-width: 5px; fill: rgb(32, 64, 208);"/><rect x="5" y="315" width="50" height="130" style="stroke: rgb(0, 0, 0); stroke-width: 5px; fill: rgb(208, 0, 0);"/><rect x="445" y="55" width="50" height="130" style="stroke: rgb(0, 0, 0); stroke-width: 5px; fill: rgb(255, 96, 32);"/><rect x="445" y="185" width="50" height="130" style="stroke: rgb(0, 0, 0); stroke-width: 5px; fill: rgb(0, 144, 0);"/><rect x="445" y="315" width="50" height="130" style="stroke: rgb(0, 0, 0); stroke-width: 5px; fill: rgb(255, 96, 32);"/><rect x="-638.983" y="305.816" width="12.065" height="164.642" style="stroke: rgb(0, 0, 0); transform-box: fill-box; transform-origin: 50% 50%;" transform="matrix(0.707107, 0.707107, -0.707107, 0.707107, 954.349014, -75.287507)"/><path d="M -588.127 483.671 L -566.132 510.514 L -610.123 510.514 L -588.127 483.671 Z" bx:shape="triangle -610.123 483.671 43.991 26.843 0.5 0 1@9f15bdcd" style="stroke: rgb(0, 0, 0); transform-origin: -588.126px 497.092px;" transform="matrix(0.707107, 0.707107, -0.707107, 0.707107, 967.813974, -241.870272)"/><rect x="-457.744" y="338.277" width="12.065" height="164.642" style="stroke: rgb(0, 0, 0); transform-origin: -451.711px 420.598px;" transform="matrix(-0.707107, -0.707107, 0.707107, -0.707107, 631.385746, -241.753254)"/><path d="M -406.888 516.132 L -384.893 542.975 L -428.884 542.975 L -406.888 516.132 Z" bx:shape="triangle -428.884 516.132 43.991 26.843 0.5 0 1@e336d01a" style="stroke: rgb(0, 0, 0); transform-origin: -406.888px 529.552px;" transform="matrix(-0.707107, -0.707107, 0.707107, -0.707107, 528.649386, -293.461215)"/><path d="M -406.888 516.132 L -384.893 542.975 L -428.884 542.975 L -406.888 516.132 Z" bx:shape="triangle -428.884 516.132 43.991 26.843 0.5 0 1@e336d01a" style="stroke: rgb(0, 0, 0); transform-origin: -406.888px 529.552px;" transform="matrix(-0.707107, -0.707107, 0.707107, -0.707107, 669.432192, -157.77405)"/><path d="M -588.127 483.671 L -566.132 510.514 L -610.123 510.514 L -588.127 483.671 Z" bx:shape="triangle -610.123 483.671 43.991 26.843 0.5 0 1@9f15bdcd" style="stroke: rgb(0, 0, 0); transform-origin: -588.126px 497.092px;" transform="matrix(0.707107, 0.707107, -0.707107, 0.707107, 829.610199, -379.327142)"/></svg>