<?xml version="1.0" encoding="utf-8"?>
<svg xmlns="http://www.w3.org/2000/svg" viewBox="0 0 500 500" xmlns:bx="https://boxy-svg.com" width="500px" height="500px"><defs><bx:export><bx:file format="svg"/></bx:export></defs><rect x="55" y="55" width="130" height="130" style="stroke: rgb(0, 0, 0); stroke-width: 5px; fill: rgb(254, 254, 8);"/><rect x="55" y="185" width="130" height="130" style="stroke: rgb(0, 0, 0); stroke-width: 5px; fill: rgb(254, 254, 8);"/><rect x="55" y="315" width="130" height="130" style="stroke: rgb(0, 0, 0); stroke-width: 5px; fill: rgb(70, 70, 70);"/><rect x="185" y="55" width="130" height="130" style="stroke: rgb(0, 0, 0); stroke-width: 5px; fill: rgb(254, 254, 8);"/><rect x="185" y="185" width="130" height="130" style="stroke: rgb(0, 0, 0); stroke-width: 5px; fill: rgb(254, 254, 8);"/><rect x="315" y="185" width="130" height="130" style="stroke: rgb(0, 0, 0); stroke-width: 5px; fill: rgb(254, 254, 8);"/><rect x="183.903" y="315" width="130" height="130" style="stroke: rgb(0, 0, 0); stroke-width: 5px; fill: rgb(254, 254, 8);"/><rect x="315" y="315" width="130" height="130" style="stroke: rgb(0, 0, 0); stroke-width: 5px; fill: rgb(70, 70, 70);"/><rect x="315" y="55" width="130" height="130" style="stroke: rgb(0, 0, 0); stroke-width: 5px; fill: rgb(254, 254, 8);"/><rect x="55" y="5" width="130" height="50" style="stroke: rgb(0, 0, 0); stroke-width: 5px; fill: rgb(70, 70, 70);"/><rect x="185" y="5" width="130" height="50" style="stroke: rgb(0, 0, 0); stroke-width: 5px; fill: rgb(70, 70, 70);"/><rect x="315" y="5" width="130" height="50" style="stroke: rgb(0, 0, 0); stroke-width: 5px; fill: rgb(70, 70, 70);"/><rect x="55" y="445" width="130" height="50" style="stroke: rgb(0, 0, 0); stroke-width: 5px; fill: rgb(254, 254, 8);"/><rect x="185" y="445" width="130" height="50" style="stroke: rgb(0, 0, 0); stroke-width: 5px; fill: rgb(70, 70, 70);"/><rect x="315" y="445" width="130" height="50" style="stroke: rgb(0, 0, 0); stroke-width: 5px; fill: rgb(254, 254, 8);"/><rect x="5" y="55" width="50" height="130" style="stroke: rgb(0, 0, 0); stroke-width: 5px; fill: rgb(70, 70, 70);"/><rect x="5" y="185" width="50" height="130" style="stroke: rgb(0, 0, 0); stroke-width: 5px; fill: rgb(70, 70, 70);"/><rect x="5" y="315" width="50" height="130" style="stroke: rgb(0, 0, 0); stroke-width: 5px; fill: rgb(70, 70, 70);"/><rect x="445" y="55" width="50" height="130" style="stroke: rgb(0, 0, 0); stroke-width: 5px; fill: rgb(70, 70, 70);"/><rect x="445" y="185" width="50" height="130" style="stroke: rgb(0, 0, 0); stroke-width: 5px; fill: rgb(70, 70, 70);"/><rect x="445" y="315" width="50" height="130" style="stroke: rgb(0, 0, 0); stroke-width: 5px; fill: rgb(70, 70, 70);"/></svg>