<?xml version="1.0" encoding="utf-8"?>
<svg xmlns="http://www.w3.org/2000/svg" viewBox="0 0 500 500" xmlns:bx="https://boxy-svg.com" width="500px" height="500px"><defs><bx:export><bx:file format="svg"/></bx:export></defs><rect x="55" y="55" width="130" height="130" style="stroke: rgb(0, 0, 0); stroke-width: 5px; fill: rgb(0, 144, 0);"/><rect x="55" y="185" width="130" height="130" style="stroke: rgb(0, 0, 0); stroke-width: 5px; fill: rgb(0, 144, 0);"/><rect x="55" y="315" width="130" height="130" style="stroke: rgb(0, 0, 0); stroke-width: 5px; fill: rgb(0, 144, 0);"/><rect x="185" y="55" width="130" height="130" style="stroke: rgb(0, 0, 0); stroke-width: 5px; fill: rgb(0, 144, 0);"/><rect x="185" y="185" width="130" height="130" style="stroke: rgb(0, 0, 0); stroke-width: 5px; fill: rgb(0, 144, 0);"/><rect x="315" y="185" width="130" height="130" style="stroke: rgb(0, 0, 0); stroke-width: 5px; fill: rgb(0, 144, 0);"/><rect x="183.903" y="315" width="130" height="130" style="stroke: rgb(0, 0, 0); stroke-width: 5px; fill: rgb(0, 144, 0);"/><rect x="315" y="315" width="130" height="130" style="stroke: rgb(0, 0, 0); stroke-width: 5px; fill: rgb(0, 144, 0);"/><rect x="315" y="55" width="130" height="130" style="stroke: rgb(0, 0, 0); stroke-width: 5px; fill: rgb(0, 144, 0);"/><path d="M -74.679 399.143 L -51.352 445.798 L -98.007 445.798 L -74.679 399.143 Z" bx:shape="triangle -98.007 399.143 46.655 46.655 0.5 0 1@938de879" style="stroke: rgb(0, 0, 0); transform-origin: -74.678px 422.471px;" transform="matrix(0, -1, -1, 0, 329.364372, -308.736572)"/><rect x="-111.285" y="362.525" width="19.644" height="256.603" style="stroke: rgb(0, 0, 0); transform-box: fill-box; transform-origin: 50% 50%;" transform="matrix(0, -1, -1, 0, -416.945091, -174.943582)"/><path style="stroke: rgb(0, 0, 0); fill: rgba(216, 216, 216, 0); stroke-width: 20px; transform-origin: 245.407px 259.484px;" d="M 245.295 406.412 C 358.4 406.412 429.091 283.972 372.539 186.02 C 315.986 88.068 174.605 88.068 118.052 186.02 C 105.34 208.037 98.559 232.977 98.371 258.4" transform="matrix(-1, 0, 0, -1, -0.000014, -0.000035)"/></svg>